<svg width="39" height="40" viewBox="0 0 39 40" fill="none" xmlns="http://www.w3.org/2000/svg">
<g clip-path="url(#clip0_17_103)">
<path d="M19.7383 13.2617C16.0912 13.2617 13.1495 16.2676 13.1495 19.9941C13.1495 23.7207 16.0912 26.7266 19.7383 26.7266C23.3854 26.7266 26.3271 23.7207 26.3271 19.9941C26.3271 16.2676 23.3854 13.2617 19.7383 13.2617ZM19.7383 24.3711C17.3815 24.3711 15.4547 22.4082 15.4547 19.9941C15.4547 17.5801 17.3757 15.6172 19.7383 15.6172C22.1009 15.6172 24.0219 17.5801 24.0219 19.9941C24.0219 22.4082 22.0951 24.3711 19.7383 24.3711ZM28.1335 12.9863C28.1335 13.8594 27.4453 14.5566 26.5966 14.5566C25.7422 14.5566 25.0598 13.8535 25.0598 12.9863C25.0598 12.1191 25.748 11.416 26.5966 11.416C27.4453 11.416 28.1335 12.1191 28.1335 12.9863ZM32.4973 14.5801C32.3999 12.4766 31.9296 10.6133 30.4215 9.07812C28.9191 7.54297 27.0955 7.0625 25.0369 6.95703C22.9152 6.83398 16.5557 6.83398 14.434 6.95703C12.3811 7.05664 10.5575 7.53711 9.04937 9.07226C7.54122 10.6074 7.07674 12.4707 6.97352 14.5742C6.8531 16.7422 6.8531 23.2402 6.97352 25.4082C7.071 27.5117 7.54122 29.375 9.04937 30.9101C10.5575 32.4453 12.3753 32.9258 14.434 33.0312C16.5557 33.1543 22.9152 33.1543 25.0369 33.0312C27.0955 32.9316 28.9191 32.4512 30.4215 30.9101C31.9239 29.375 32.3941 27.5117 32.4973 25.4082C32.6178 23.2402 32.6178 16.748 32.4973 14.5801ZM29.7563 27.7344C29.309 28.8828 28.4431 29.7676 27.3134 30.2305C25.6218 30.916 21.6077 30.7578 19.7383 30.7578C17.8689 30.7578 13.8491 30.9101 12.1632 30.2305C11.0392 29.7734 10.1733 28.8887 9.7203 27.7344C9.04937 26.0058 9.2042 21.9043 9.2042 19.9941C9.2042 18.084 9.05511 13.9766 9.7203 12.2539C10.1676 11.1055 11.0335 10.2207 12.1632 9.75781C13.8548 9.07226 17.8689 9.23047 19.7383 9.23047C21.6077 9.23047 25.6275 9.07812 27.3134 9.75781C28.4374 10.2148 29.3033 11.0996 29.7563 12.2539C30.4272 13.9824 30.2724 18.084 30.2724 19.9941C30.2724 21.9043 30.4272 26.0117 29.7563 27.7344Z" fill="#3F3F3F"/>
</g>
<defs>
<clipPath id="clip0_17_103">
<rect width="25.6901" height="30" fill="white" transform="translate(6.8875 5)"/>
</clipPath>
</defs>
</svg>
