<svg width="40" height="40" viewBox="0 0 40 40" fill="none" xmlns="http://www.w3.org/2000/svg">
<g clip-path="url(#clip0_17_107)">
<path d="M13.1006 31.6665V14.7991H7.59275V31.6665H13.1006ZM10.3474 12.4947C12.268 12.4947 13.4636 11.1995 13.4636 9.58088C13.4278 7.92578 12.2681 6.6665 10.3838 6.6665C8.49981 6.6665 7.26779 7.9258 7.26779 9.58088C7.26779 11.1996 8.46302 12.4947 10.3114 12.4947H10.3472H10.3474ZM16.1491 31.6665H21.6569V22.2469C21.6569 21.7428 21.6927 21.2392 21.8382 20.8788C22.2363 19.8716 23.1426 18.8284 24.6641 18.8284C26.6571 18.8284 27.4544 20.3752 27.4544 22.6427V31.6664H32.9619V21.9948C32.9619 16.8137 30.2446 14.4031 26.6208 14.4031C23.6496 14.4031 22.345 16.0936 21.6203 17.245H21.657V14.7987H16.1492C16.2215 16.3815 16.1492 31.6662 16.1492 31.6662L16.1491 31.6665Z" fill="#3F3F3F"/>
</g>
<defs>
<clipPath id="clip0_17_107">
<rect width="25.6901" height="25" fill="white" transform="translate(7.26779 6.6665)"/>
</clipPath>
</defs>
</svg>
