<svg width="40" height="40" viewBox="0 0 40 40" fill="none" xmlns="http://www.w3.org/2000/svg">
<g clip-path="url(#clip0_17_111)">
<path d="M34.3378 11.1748C33.2555 11.6489 32.1076 11.9602 30.9321 12.0981C32.1565 11.3724 33.0966 10.2233 33.5393 8.85411C32.3754 9.53713 31.1019 10.0184 29.7741 10.277C28.6924 9.13746 27.1515 8.42529 25.446 8.42529C22.1713 8.42529 19.5163 11.0507 19.5163 14.2888C19.5163 14.7484 19.5688 15.1959 19.6699 15.6251C14.7419 15.3805 10.3729 13.0462 7.44828 9.49863C6.93799 10.3646 6.64559 11.372 6.64559 12.4464C6.64559 14.4808 7.69248 16.2754 9.28341 17.327C8.3418 17.2978 7.4209 17.0464 6.59761 16.5935C6.59727 16.6181 6.59727 16.6426 6.59727 16.6673C6.59727 19.5083 8.64114 21.8782 11.3536 22.4169C10.4804 22.6517 9.56455 22.6861 8.67592 22.5174C9.4304 24.8469 11.6202 26.5421 14.2148 26.5896C12.1855 28.1622 9.62876 29.0996 6.85084 29.0996C6.37216 29.0996 5.90025 29.0718 5.43636 29.0177C8.06041 30.6814 11.1771 31.6521 14.5256 31.6521C25.4322 31.6521 31.3961 22.7172 31.3961 14.9688C31.3961 14.7145 31.3905 14.4616 31.379 14.2102C32.5398 13.3803 33.5418 12.3525 34.3378 11.1748Z" fill="#3F3F3F"/>
</g>
<defs>
<clipPath id="clip0_17_111">
<rect width="28.9014" height="23.3333" fill="white" transform="translate(5.43636 8.3335)"/>
</clipPath>
</defs>
</svg>
